<?xml version="1.0" encoding="UTF-8" standalone="no"?>
<!DOCTYPE svg PUBLIC "-//W3C//DTD SVG 1.1//EN"
 "http://www.w3.org/Graphics/SVG/1.1/DTD/svg11.dtd">
<!-- Generated by graphviz version 2.38.0 (20140413.2041)
 -->
<!-- Title: %3 Pages: 1 -->
<svg width="790pt" height="546pt"
 viewBox="0.00 0.00 789.75 545.67" xmlns="http://www.w3.org/2000/svg" xmlns:xlink="http://www.w3.org/1999/xlink">
<g id="graph0" class="graph" transform="scale(1 1) rotate(0) translate(4 541.666)">
<title>%3</title>
<polygon fill="white" stroke="none" points="-4,4 -4,-541.666 785.754,-541.666 785.754,4 -4,4"/>
<!-- n1 -->
<g id="node1" class="node"><title>n1</title>
<ellipse fill="none" stroke="black" cx="232.487" cy="-489.583" rx="125.73" ry="48.1667"/>
<text text-anchor="middle" x="232.487" y="-508.383" font-family="Times,serif" font-size="14.00">x={3, 5, 6, 3, 8}</text>
<text text-anchor="middle" x="232.487" y="-493.383" font-family="Times,serif" font-size="14.00">y={0.12, 0.23, 0.35, 0.27, 1}</text>
<text text-anchor="middle" x="232.487" y="-478.383" font-family="Times,serif" font-size="14.00">s={0, 0, 0, 0, 0}</text>
<text text-anchor="middle" x="232.487" y="-463.383" font-family="Times,serif" font-size="14.00">z=174.23</text>
</g>
<!-- n2 -->
<g id="node2" class="node"><title>n2</title>
<ellipse fill="none" stroke="black" cx="149.487" cy="-342.416" rx="149.473" ry="18"/>
<text text-anchor="middle" x="149.487" y="-338.716" font-family="Times,serif" font-size="14.00">NO PRIMAL FEASIBLE SOLUTION</text>
</g>
<!-- n1&#45;&gt;n2 -->
<g id="edge1" class="edge"><title>n1&#45;&gt;n2</title>
<path fill="none" stroke="black" d="M205.997,-442.252C192.236,-418.184 175.929,-389.664 164.379,-369.462"/>
<polygon fill="black" stroke="black" points="167.28,-367.484 159.278,-360.54 161.203,-370.959 167.28,-367.484"/>
<text text-anchor="middle" x="207.987" y="-412.3" font-family="Times,serif" font-size="14.00">y1=0</text>
</g>
<!-- n3 -->
<g id="node3" class="node"><title>n3</title>
<ellipse fill="none" stroke="black" cx="430.487" cy="-342.416" rx="113.689" ry="48.1667"/>
<text text-anchor="middle" x="430.487" y="-361.216" font-family="Times,serif" font-size="14.00">x={3, 5, 6, 3, 8}</text>
<text text-anchor="middle" x="430.487" y="-346.216" font-family="Times,serif" font-size="14.00">y={1, 0.23, 0.35, 0.27, 1}</text>
<text text-anchor="middle" x="430.487" y="-331.216" font-family="Times,serif" font-size="14.00">s={0, 0, 0, 0, 0}</text>
<text text-anchor="middle" x="430.487" y="-316.216" font-family="Times,serif" font-size="14.00">z=183.03</text>
</g>
<!-- n1&#45;&gt;n3 -->
<g id="edge2" class="edge"><title>n1&#45;&gt;n3</title>
<path fill="none" stroke="black" d="M289.757,-446.595C313.665,-429.066 341.549,-408.622 366.16,-390.578"/>
<polygon fill="black" stroke="black" points="368.375,-393.294 374.37,-384.559 364.236,-387.649 368.375,-393.294"/>
<text text-anchor="middle" x="350.987" y="-412.3" font-family="Times,serif" font-size="14.00">y1=1</text>
</g>
<!-- n4 -->
<g id="node4" class="node"><title>n4</title>
<ellipse fill="none" stroke="black" cx="306.487" cy="-195.25" rx="101.233" ry="48.1667"/>
<text text-anchor="middle" x="306.487" y="-214.05" font-family="Times,serif" font-size="14.00">x={8, 0, 6, 3, 8}</text>
<text text-anchor="middle" x="306.487" y="-199.05" font-family="Times,serif" font-size="14.00">y={1, 0, 0.35, 0.27, 1}</text>
<text text-anchor="middle" x="306.487" y="-184.05" font-family="Times,serif" font-size="14.00">s={5, 0, 0, 0, 0}</text>
<text text-anchor="middle" x="306.487" y="-169.05" font-family="Times,serif" font-size="14.00">z=186.21</text>
</g>
<!-- n3&#45;&gt;n4 -->
<g id="edge3" class="edge"><title>n3&#45;&gt;n4</title>
<path fill="none" stroke="black" d="M392.271,-296.677C379.062,-281.213 364.155,-263.762 350.518,-247.797"/>
<polygon fill="black" stroke="black" points="353.094,-245.424 343.938,-240.094 347.772,-249.971 353.094,-245.424"/>
<text text-anchor="middle" x="385.987" y="-265.133" font-family="Times,serif" font-size="14.00">y2=0</text>
</g>
<!-- n5 -->
<g id="node5" class="node"><title>n5</title>
<ellipse fill="none" stroke="black" cx="514.487" cy="-195.25" rx="89.191" ry="48.1667"/>
<text text-anchor="middle" x="514.487" y="-214.05" font-family="Times,serif" font-size="14.00">x={3, 11, 0, 3, 8}</text>
<text text-anchor="middle" x="514.487" y="-199.05" font-family="Times,serif" font-size="14.00">y={1, 1, 0, 0.27, 1}</text>
<text text-anchor="middle" x="514.487" y="-184.05" font-family="Times,serif" font-size="14.00">s={0, 6, 0, 0, 0}</text>
<text text-anchor="middle" x="514.487" y="-169.05" font-family="Times,serif" font-size="14.00">z=187.1</text>
</g>
<!-- n3&#45;&gt;n5 -->
<g id="edge4" class="edge"><title>n3&#45;&gt;n5</title>
<path fill="none" stroke="black" d="M457.065,-295.485C465.344,-281.177 474.552,-265.264 483.126,-250.446"/>
<polygon fill="black" stroke="black" points="486.39,-251.794 488.369,-241.386 480.331,-248.288 486.39,-251.794"/>
<text text-anchor="middle" x="488.987" y="-265.133" font-family="Times,serif" font-size="14.00">y2=1</text>
</g>
<!-- n6 -->
<g id="node6" class="node"><title>n6</title>
<ellipse fill="none" stroke="black" cx="119.487" cy="-48.0833" rx="89.191" ry="48.1667"/>
<text text-anchor="middle" x="119.487" y="-66.8833" font-family="Times,serif" font-size="14.00">x={8, 0, 9, 0, 8}</text>
<text text-anchor="middle" x="119.487" y="-51.8833" font-family="Times,serif" font-size="14.00">y={1, 0, 0.53, 0, 1}</text>
<text text-anchor="middle" x="119.487" y="-36.8833" font-family="Times,serif" font-size="14.00">s={5, 0, 3, 0, 0}</text>
<text text-anchor="middle" x="119.487" y="-21.8833" font-family="Times,serif" font-size="14.00">z=189.18</text>
</g>
<!-- n4&#45;&gt;n6 -->
<g id="edge5" class="edge"><title>n4&#45;&gt;n6</title>
<path fill="none" stroke="black" d="M254.397,-153.813C230.609,-135.346 202.339,-113.401 177.838,-94.3811"/>
<polygon fill="black" stroke="black" points="179.731,-91.4197 169.686,-88.0523 175.439,-96.9492 179.731,-91.4197"/>
<text text-anchor="middle" x="233.987" y="-117.967" font-family="Times,serif" font-size="14.00">y4=0</text>
</g>
<!-- n7 -->
<g id="node7" class="node"><title>n7</title>
<ellipse fill="none" stroke="black" cx="315.487" cy="-48.0833" rx="89.191" ry="48.1667"/>
<text text-anchor="middle" x="315.487" y="-66.8833" font-family="Times,serif" font-size="14.00">x={8, 0, 6, 11, 0}</text>
<text text-anchor="middle" x="315.487" y="-51.8833" font-family="Times,serif" font-size="14.00">y={1, 0, 0.35, 1, 0}</text>
<text text-anchor="middle" x="315.487" y="-36.8833" font-family="Times,serif" font-size="14.00">s={5, 0, 0, 8, 0}</text>
<text text-anchor="middle" x="315.487" y="-21.8833" font-family="Times,serif" font-size="14.00">z=187.12</text>
</g>
<!-- n4&#45;&gt;n7 -->
<g id="edge6" class="edge"><title>n4&#45;&gt;n7</title>
<path fill="none" stroke="black" d="M309.409,-147.118C310.21,-134.188 311.089,-120.023 311.922,-106.581"/>
<polygon fill="black" stroke="black" points="315.423,-106.672 312.549,-96.475 308.436,-106.239 315.423,-106.672"/>
<text text-anchor="middle" x="324.987" y="-117.967" font-family="Times,serif" font-size="14.00">y4=1</text>
</g>
<!-- n8 -->
<g id="node8" class="node"><title>n8</title>
<ellipse fill="none" stroke="black" cx="509.487" cy="-48.0833" rx="82.0488" ry="48.1667"/>
<text text-anchor="middle" x="509.487" y="-66.8833" font-family="Times,serif" font-size="14.00">x={3, 14, 0, 0, 8}</text>
<text text-anchor="middle" x="509.487" y="-51.8833" font-family="Times,serif" font-size="14.00">y={1, 1, 0, 0, 1}</text>
<text text-anchor="middle" x="509.487" y="-36.8833" font-family="Times,serif" font-size="14.00">s={0, 9, 3, 0, 0}</text>
<text text-anchor="middle" x="509.487" y="-21.8833" font-family="Times,serif" font-size="14.00">z=189</text>
</g>
<!-- n5&#45;&gt;n8 -->
<g id="edge7" class="edge"><title>n5&#45;&gt;n8</title>
<path fill="none" stroke="black" d="M512.863,-147.118C512.418,-134.188 511.93,-120.023 511.467,-106.581"/>
<polygon fill="black" stroke="black" points="514.961,-106.349 511.119,-96.475 507.965,-106.59 514.961,-106.349"/>
<text text-anchor="middle" x="525.987" y="-117.967" font-family="Times,serif" font-size="14.00">y4=0</text>
</g>
<!-- n9 -->
<g id="node9" class="node"><title>n9</title>
<ellipse fill="none" stroke="black" cx="695.487" cy="-48.0833" rx="86.0347" ry="48.1667"/>
<text text-anchor="middle" x="695.487" y="-66.8833" font-family="Times,serif" font-size="14.00">x={3, 11, 0, 11, 0}</text>
<text text-anchor="middle" x="695.487" y="-51.8833" font-family="Times,serif" font-size="14.00">y={1, 1, 0, 1, 0}</text>
<text text-anchor="middle" x="695.487" y="-36.8833" font-family="Times,serif" font-size="14.00">s={0, 6, 0, 8, 0}</text>
<text text-anchor="middle" x="695.487" y="-21.8833" font-family="Times,serif" font-size="14.00">z=188</text>
</g>
<!-- n5&#45;&gt;n9 -->
<g id="edge8" class="edge"><title>n5&#45;&gt;n9</title>
<path fill="none" stroke="black" d="M563.468,-154.966C586.795,-136.256 614.821,-113.779 639.039,-94.3558"/>
<polygon fill="black" stroke="black" points="641.482,-96.8828 647.094,-87.8958 637.103,-91.4221 641.482,-96.8828"/>
<text text-anchor="middle" x="623.987" y="-117.967" font-family="Times,serif" font-size="14.00">y4=1</text>
</g>
</g>
</svg>
