<?xml version="1.0" encoding="UTF-8" standalone="no"?>
<!DOCTYPE svg PUBLIC "-//W3C//DTD SVG 1.1//EN"
 "http://www.w3.org/Graphics/SVG/1.1/DTD/svg11.dtd">
<!-- Generated by graphviz version 2.38.0 (20140413.2041)
 -->
<!-- Title: %3 Pages: 1 -->
<svg width="589pt" height="398pt"
 viewBox="0.00 0.00 588.75 398.50" xmlns="http://www.w3.org/2000/svg" xmlns:xlink="http://www.w3.org/1999/xlink">
<g id="graph0" class="graph" transform="scale(1 1) rotate(0) translate(4 394.5)">
<title>%3</title>
<polygon fill="white" stroke="none" points="-4,4 -4,-394.5 584.754,-394.5 584.754,4 -4,4"/>
<!-- n1 -->
<g id="node1" class="node"><title>n1</title>
<ellipse fill="none" stroke="black" cx="225.487" cy="-342.416" rx="96.7474" ry="48.1667"/>
<text text-anchor="middle" x="225.487" y="-361.216" font-family="Times,serif" font-size="14.00">x={6, 8, 0, 11, 0}</text>
<text text-anchor="middle" x="225.487" y="-346.216" font-family="Times,serif" font-size="14.00">y={0.24, 0.4, 0, 1, 0}</text>
<text text-anchor="middle" x="225.487" y="-331.216" font-family="Times,serif" font-size="14.00">s={3, 6, 0, 8, 0}</text>
<text text-anchor="middle" x="225.487" y="-316.216" font-family="Times,serif" font-size="14.00">z=178.6</text>
</g>
<!-- n2 -->
<g id="node2" class="node"><title>n2</title>
<ellipse fill="none" stroke="black" cx="149.487" cy="-195.25" rx="149.473" ry="18"/>
<text text-anchor="middle" x="149.487" y="-191.55" font-family="Times,serif" font-size="14.00">NO PRIMAL FEASIBLE SOLUTION</text>
</g>
<!-- n1&#45;&gt;n2 -->
<g id="edge1" class="edge"><title>n1&#45;&gt;n2</title>
<path fill="none" stroke="black" d="M201.44,-295.485C188.826,-271.391 173.83,-242.747 163.199,-222.441"/>
<polygon fill="black" stroke="black" points="166.242,-220.708 158.503,-213.472 160.041,-223.955 166.242,-220.708"/>
<text text-anchor="middle" x="204.987" y="-265.133" font-family="Times,serif" font-size="14.00">y1=0</text>
</g>
<!-- n3 -->
<g id="node3" class="node"><title>n3</title>
<ellipse fill="none" stroke="black" cx="401.487" cy="-195.25" rx="84.2917" ry="48.1667"/>
<text text-anchor="middle" x="401.487" y="-214.05" font-family="Times,serif" font-size="14.00">x={6, 8, 0, 11, 0}</text>
<text text-anchor="middle" x="401.487" y="-199.05" font-family="Times,serif" font-size="14.00">y={1, 0.4, 0, 1, 0}</text>
<text text-anchor="middle" x="401.487" y="-184.05" font-family="Times,serif" font-size="14.00">s={3, 6, 0, 8, 0}</text>
<text text-anchor="middle" x="401.487" y="-169.05" font-family="Times,serif" font-size="14.00">z=186.2</text>
</g>
<!-- n1&#45;&gt;n3 -->
<g id="edge2" class="edge"><title>n1&#45;&gt;n3</title>
<path fill="none" stroke="black" d="M274.981,-300.593C297.173,-282.289 323.434,-260.629 346.262,-241.8"/>
<polygon fill="black" stroke="black" points="348.693,-244.331 354.181,-235.268 344.239,-238.931 348.693,-244.331"/>
<text text-anchor="middle" x="332.987" y="-265.133" font-family="Times,serif" font-size="14.00">y1=1</text>
</g>
<!-- n4 -->
<g id="node4" class="node"><title>n4</title>
<ellipse fill="none" stroke="black" cx="308.487" cy="-48.0833" rx="82.0488" ry="48.1667"/>
<text text-anchor="middle" x="308.487" y="-66.8833" font-family="Times,serif" font-size="14.00">x={8, 0, 6, 11, 0}</text>
<text text-anchor="middle" x="308.487" y="-51.8833" font-family="Times,serif" font-size="14.00">y={1, 0, 1, 1, 0}</text>
<text text-anchor="middle" x="308.487" y="-36.8833" font-family="Times,serif" font-size="14.00">s={5, 0, 0, 8, 0}</text>
<text text-anchor="middle" x="308.487" y="-21.8833" font-family="Times,serif" font-size="14.00">z=191</text>
</g>
<!-- n3&#45;&gt;n4 -->
<g id="edge3" class="edge"><title>n3&#45;&gt;n4</title>
<path fill="none" stroke="black" d="M373.078,-149.906C363.388,-134.781 352.456,-117.716 342.379,-101.986"/>
<polygon fill="black" stroke="black" points="345.223,-99.9374 336.881,-93.4052 339.329,-103.713 345.223,-99.9374"/>
<text text-anchor="middle" x="371.987" y="-117.967" font-family="Times,serif" font-size="14.00">y2=0</text>
</g>
<!-- n5 -->
<g id="node5" class="node"><title>n5</title>
<ellipse fill="none" stroke="black" cx="494.487" cy="-48.0833" rx="86.0347" ry="48.1667"/>
<text text-anchor="middle" x="494.487" y="-66.8833" font-family="Times,serif" font-size="14.00">x={3, 11, 0, 11, 0}</text>
<text text-anchor="middle" x="494.487" y="-51.8833" font-family="Times,serif" font-size="14.00">y={1, 1, 0, 1, 0}</text>
<text text-anchor="middle" x="494.487" y="-36.8833" font-family="Times,serif" font-size="14.00">s={0, 6, 0, 8, 0}</text>
<text text-anchor="middle" x="494.487" y="-21.8833" font-family="Times,serif" font-size="14.00">z=188</text>
</g>
<!-- n3&#45;&gt;n5 -->
<g id="edge4" class="edge"><title>n3&#45;&gt;n5</title>
<path fill="none" stroke="black" d="M429.895,-149.906C439.54,-134.851 450.416,-117.875 460.454,-102.206"/>
<polygon fill="black" stroke="black" points="463.485,-103.964 465.932,-93.6555 457.59,-100.188 463.485,-103.964"/>
<text text-anchor="middle" x="464.987" y="-117.967" font-family="Times,serif" font-size="14.00">y2=1</text>
</g>
</g>
</svg>
