<?xml version="1.0" encoding="UTF-8" standalone="no"?>
<!DOCTYPE svg PUBLIC "-//W3C//DTD SVG 1.1//EN"
 "http://www.w3.org/Graphics/SVG/1.1/DTD/svg11.dtd">
<!-- Generated by graphviz version 2.38.0 (20140413.2041)
 -->
<!-- Title: %3 Pages: 1 -->
<svg width="887pt" height="840pt"
 viewBox="0.00 0.00 886.71 840.00" xmlns="http://www.w3.org/2000/svg" xmlns:xlink="http://www.w3.org/1999/xlink">
<g id="graph0" class="graph" transform="scale(1 1) rotate(0) translate(4 835.999)">
<title>%3</title>
<polygon fill="white" stroke="none" points="-4,4 -4,-835.999 882.706,-835.999 882.706,4 -4,4"/>
<!-- n1 -->
<g id="node1" class="node"><title>n1</title>
<ellipse fill="none" stroke="black" cx="321.439" cy="-783.916" rx="132.458" ry="48.1667"/>
<text text-anchor="middle" x="321.439" y="-802.716" font-family="Times,serif" font-size="14.00">x={3, 5, 6, 3, 8}</text>
<text text-anchor="middle" x="321.439" y="-787.716" font-family="Times,serif" font-size="14.00">y{0.03, 0.05, 0.06, 0.03, 0.08}</text>
<text text-anchor="middle" x="321.439" y="-772.716" font-family="Times,serif" font-size="14.00">s={0, 0, 0, 0, 0}</text>
<text text-anchor="middle" x="321.439" y="-757.716" font-family="Times,serif" font-size="14.00">z=167.34</text>
</g>
<!-- n2 -->
<g id="node2" class="node"><title>n2</title>
<ellipse fill="none" stroke="black" cx="234.439" cy="-636.749" rx="149.473" ry="18"/>
<text text-anchor="middle" x="234.439" y="-633.049" font-family="Times,serif" font-size="14.00">NO PRIMAL FEASIBLE SOLUTION</text>
</g>
<!-- n1&#45;&gt;n2 -->
<g id="edge1" class="edge"><title>n1&#45;&gt;n2</title>
<path fill="none" stroke="black" d="M293.672,-736.585C279.182,-712.408 262.001,-683.739 249.884,-663.521"/>
<polygon fill="black" stroke="black" points="252.844,-661.652 244.701,-654.873 246.84,-665.25 252.844,-661.652"/>
<text text-anchor="middle" x="299.939" y="-706.633" font-family="Times,serif" font-size="14.00">y1 = 0</text>
</g>
<!-- n3 -->
<g id="node3" class="node"><title>n3</title>
<ellipse fill="none" stroke="black" cx="522.439" cy="-636.749" rx="120.417" ry="48.1667"/>
<text text-anchor="middle" x="522.439" y="-655.549" font-family="Times,serif" font-size="14.00">x={3, 5, 6, 3, 8}</text>
<text text-anchor="middle" x="522.439" y="-640.549" font-family="Times,serif" font-size="14.00">y{1, 0.05, 0.06, 0.03, 0.08}</text>
<text text-anchor="middle" x="522.439" y="-625.549" font-family="Times,serif" font-size="14.00">s={0, 0, 0, 0, 0}</text>
<text text-anchor="middle" x="522.439" y="-610.549" font-family="Times,serif" font-size="14.00">z=177.04</text>
</g>
<!-- n1&#45;&gt;n3 -->
<g id="edge2" class="edge"><title>n1&#45;&gt;n3</title>
<path fill="none" stroke="black" d="M379.846,-740.733C403.902,-723.359 431.885,-703.149 456.659,-685.257"/>
<polygon fill="black" stroke="black" points="458.869,-687.978 464.927,-679.286 454.771,-682.303 458.869,-687.978"/>
<text text-anchor="middle" x="446.939" y="-706.633" font-family="Times,serif" font-size="14.00">y1 = 1</text>
</g>
<!-- n4 -->
<g id="node4" class="node"><title>n4</title>
<ellipse fill="none" stroke="black" cx="392.439" cy="-489.583" rx="107.46" ry="48.1667"/>
<text text-anchor="middle" x="392.439" y="-508.383" font-family="Times,serif" font-size="14.00">x={3, 5, 9, 0, 8}</text>
<text text-anchor="middle" x="392.439" y="-493.383" font-family="Times,serif" font-size="14.00">y{1, 0.05, 0.09, 0, 0.08}</text>
<text text-anchor="middle" x="392.439" y="-478.383" font-family="Times,serif" font-size="14.00">s={0, 0, 3, 0, 0}</text>
<text text-anchor="middle" x="392.439" y="-463.383" font-family="Times,serif" font-size="14.00">z=180.1</text>
</g>
<!-- n3&#45;&gt;n4 -->
<g id="edge3" class="edge"><title>n3&#45;&gt;n4</title>
<path fill="none" stroke="black" d="M482.374,-591.01C468.525,-575.546 452.897,-558.095 438.6,-542.13"/>
<polygon fill="black" stroke="black" points="440.98,-539.541 431.702,-534.427 435.766,-544.211 440.98,-539.541"/>
<text text-anchor="middle" x="478.939" y="-559.466" font-family="Times,serif" font-size="14.00">y4 = 0</text>
</g>
<!-- n5 -->
<g id="node5" class="node"><title>n5</title>
<ellipse fill="none" stroke="black" cx="613.439" cy="-489.583" rx="95.4188" ry="48.1667"/>
<text text-anchor="middle" x="613.439" y="-508.383" font-family="Times,serif" font-size="14.00">x={3, 5, 6, 11, 0}</text>
<text text-anchor="middle" x="613.439" y="-493.383" font-family="Times,serif" font-size="14.00">y{1, 0.05, 0.06, 1, 0}</text>
<text text-anchor="middle" x="613.439" y="-478.383" font-family="Times,serif" font-size="14.00">s={0, 0, 0, 8, 0}</text>
<text text-anchor="middle" x="613.439" y="-463.383" font-family="Times,serif" font-size="14.00">z=180.76</text>
</g>
<!-- n3&#45;&gt;n5 -->
<g id="edge4" class="edge"><title>n3&#45;&gt;n5</title>
<path fill="none" stroke="black" d="M551.232,-589.818C560.285,-575.375 570.364,-559.297 579.727,-544.36"/>
<polygon fill="black" stroke="black" points="582.799,-546.051 585.144,-535.719 576.868,-542.333 582.799,-546.051"/>
<text text-anchor="middle" x="588.939" y="-559.466" font-family="Times,serif" font-size="14.00">y4 = 1</text>
</g>
<!-- n6 -->
<g id="node6" class="node"><title>n6</title>
<ellipse fill="none" stroke="black" cx="213.439" cy="-342.416" rx="95.4188" ry="48.1667"/>
<text text-anchor="middle" x="213.439" y="-361.216" font-family="Times,serif" font-size="14.00">x={8, 0, 9, 0, 8}</text>
<text text-anchor="middle" x="213.439" y="-346.216" font-family="Times,serif" font-size="14.00">y{1, 0, 0.09, 0, 0.08}</text>
<text text-anchor="middle" x="213.439" y="-331.216" font-family="Times,serif" font-size="14.00">s={5, 0, 3, 0, 0}</text>
<text text-anchor="middle" x="213.439" y="-316.216" font-family="Times,serif" font-size="14.00">z=184.7</text>
</g>
<!-- n4&#45;&gt;n6 -->
<g id="edge5" class="edge"><title>n4&#45;&gt;n6</title>
<path fill="none" stroke="black" d="M341.144,-446.984C319.242,-429.222 293.583,-408.412 271.032,-390.124"/>
<polygon fill="black" stroke="black" points="273.168,-387.35 263.197,-383.77 268.759,-392.787 273.168,-387.35"/>
<text text-anchor="middle" x="326.939" y="-412.3" font-family="Times,serif" font-size="14.00">y2 = 0</text>
</g>
<!-- n7 -->
<g id="node7" class="node"><title>n7</title>
<ellipse fill="none" stroke="black" cx="410.439" cy="-342.416" rx="83.3772" ry="48.1667"/>
<text text-anchor="middle" x="410.439" y="-361.216" font-family="Times,serif" font-size="14.00">x={3, 14, 0, 0, 8}</text>
<text text-anchor="middle" x="410.439" y="-346.216" font-family="Times,serif" font-size="14.00">y{1, 1, 0, 0, 0.08}</text>
<text text-anchor="middle" x="410.439" y="-331.216" font-family="Times,serif" font-size="14.00">s={0, 9, 3, 0, 0}</text>
<text text-anchor="middle" x="410.439" y="-316.216" font-family="Times,serif" font-size="14.00">z=187.16</text>
</g>
<!-- n4&#45;&gt;n7 -->
<g id="edge6" class="edge"><title>n4&#45;&gt;n7</title>
<path fill="none" stroke="black" d="M398.283,-441.451C399.886,-428.521 401.642,-414.356 403.309,-400.914"/>
<polygon fill="black" stroke="black" points="406.805,-401.163 404.562,-390.808 399.858,-400.301 406.805,-401.163"/>
<text text-anchor="middle" x="420.939" y="-412.3" font-family="Times,serif" font-size="14.00">y2 = 1</text>
</g>
<!-- n8 -->
<g id="node8" class="node"><title>n8</title>
<ellipse fill="none" stroke="black" cx="604.439" cy="-342.416" rx="83.3772" ry="48.1667"/>
<text text-anchor="middle" x="604.439" y="-361.216" font-family="Times,serif" font-size="14.00">x={8, 0, 6, 11, 0}</text>
<text text-anchor="middle" x="604.439" y="-346.216" font-family="Times,serif" font-size="14.00">y{1, 0, 0.06, 1, 0}</text>
<text text-anchor="middle" x="604.439" y="-331.216" font-family="Times,serif" font-size="14.00">s={5, 0, 0, 8, 0}</text>
<text text-anchor="middle" x="604.439" y="-316.216" font-family="Times,serif" font-size="14.00">z=185.36</text>
</g>
<!-- n5&#45;&gt;n8 -->
<g id="edge7" class="edge"><title>n5&#45;&gt;n8</title>
<path fill="none" stroke="black" d="M610.517,-441.451C609.715,-428.521 608.837,-414.356 608.003,-400.914"/>
<polygon fill="black" stroke="black" points="611.489,-400.572 607.377,-390.808 604.502,-401.005 611.489,-400.572"/>
<text text-anchor="middle" x="626.939" y="-412.3" font-family="Times,serif" font-size="14.00">y2 = 0</text>
</g>
<!-- n9 -->
<g id="node9" class="node"><title>n9</title>
<ellipse fill="none" stroke="black" cx="792.439" cy="-342.416" rx="86.0347" ry="48.1667"/>
<text text-anchor="middle" x="792.439" y="-361.216" font-family="Times,serif" font-size="14.00">x={3, 11, 0, 11, 0}</text>
<text text-anchor="middle" x="792.439" y="-346.216" font-family="Times,serif" font-size="14.00">y{1, 1, 0, 1, 0}</text>
<text text-anchor="middle" x="792.439" y="-331.216" font-family="Times,serif" font-size="14.00">s={0, 6, 0, 8, 0}</text>
<text text-anchor="middle" x="792.439" y="-316.216" font-family="Times,serif" font-size="14.00">z=188</text>
</g>
<!-- n5&#45;&gt;n9 -->
<g id="edge8" class="edge"><title>n5&#45;&gt;n9</title>
<path fill="none" stroke="black" d="M663.3,-448.146C686.07,-429.679 713.131,-407.734 736.583,-388.714"/>
<polygon fill="black" stroke="black" points="738.825,-391.403 744.387,-382.385 734.416,-385.966 738.825,-391.403"/>
<text text-anchor="middle" x="725.939" y="-412.3" font-family="Times,serif" font-size="14.00">y2 = 1</text>
</g>
<!-- n10 -->
<g id="node10" class="node"><title>n10</title>
<ellipse fill="none" stroke="black" cx="83.4386" cy="-195.25" rx="83.3772" ry="48.1667"/>
<text text-anchor="middle" x="83.4386" y="-214.05" font-family="Times,serif" font-size="14.00">x={8, 0, 17, 0, 0}</text>
<text text-anchor="middle" x="83.4386" y="-199.05" font-family="Times,serif" font-size="14.00">y{1, 0, 0.17, 0, 0}</text>
<text text-anchor="middle" x="83.4386" y="-184.05" font-family="Times,serif" font-size="14.00">s={5, 0, 11, 8, 0}</text>
<text text-anchor="middle" x="83.4386" y="-169.05" font-family="Times,serif" font-size="14.00">z=193.02</text>
</g>
<!-- n6&#45;&gt;n10 -->
<g id="edge9" class="edge"><title>n6&#45;&gt;n10</title>
<path fill="none" stroke="black" d="M174.786,-298.255C160.118,-281.875 143.295,-263.089 128.115,-246.139"/>
<polygon fill="black" stroke="black" points="130.549,-243.61 121.271,-238.495 125.334,-248.28 130.549,-243.61"/>
<text text-anchor="middle" x="170.939" y="-265.133" font-family="Times,serif" font-size="14.00">y5 = 0</text>
</g>
<!-- n11 -->
<g id="node11" class="node"><title>n11</title>
<ellipse fill="none" stroke="black" cx="268.439" cy="-195.25" rx="83.3772" ry="48.1667"/>
<text text-anchor="middle" x="268.439" y="-214.05" font-family="Times,serif" font-size="14.00">x={8, 0, 9, 0, 8}</text>
<text text-anchor="middle" x="268.439" y="-199.05" font-family="Times,serif" font-size="14.00">y{1, 0, 0.09, 0, 1}</text>
<text text-anchor="middle" x="268.439" y="-184.05" font-family="Times,serif" font-size="14.00">s={5, 0, 3, 0, 0}</text>
<text text-anchor="middle" x="268.439" y="-169.05" font-family="Times,serif" font-size="14.00">z=186.54</text>
</g>
<!-- n6&#45;&gt;n11 -->
<g id="edge10" class="edge"><title>n6&#45;&gt;n11</title>
<path fill="none" stroke="black" d="M230.992,-295.086C236.152,-281.467 241.852,-266.424 247.215,-252.268"/>
<polygon fill="black" stroke="black" points="250.593,-253.23 250.863,-242.638 244.047,-250.75 250.593,-253.23"/>
<text text-anchor="middle" x="261.939" y="-265.133" font-family="Times,serif" font-size="14.00">y5 = 1</text>
</g>
<!-- n12 -->
<g id="node12" class="node"><title>n12</title>
<ellipse fill="none" stroke="black" cx="502.439" cy="-195.25" rx="86.0347" ry="48.1667"/>
<text text-anchor="middle" x="502.439" y="-214.05" font-family="Times,serif" font-size="14.00">x={14, 0, 0, 11, 0}</text>
<text text-anchor="middle" x="502.439" y="-199.05" font-family="Times,serif" font-size="14.00">y{1, 0, 0, 1, 0}</text>
<text text-anchor="middle" x="502.439" y="-184.05" font-family="Times,serif" font-size="14.00">s={11, 6, 0, 8, 0}</text>
<text text-anchor="middle" x="502.439" y="-169.05" font-family="Times,serif" font-size="14.00">z=191</text>
</g>
<!-- n8&#45;&gt;n12 -->
<g id="edge11" class="edge"><title>n8&#45;&gt;n12</title>
<path fill="none" stroke="black" d="M573.558,-297.468C562.773,-282.118 550.558,-264.734 539.333,-248.758"/>
<polygon fill="black" stroke="black" points="542.179,-246.72 533.566,-240.55 536.451,-250.744 542.179,-246.72"/>
<text text-anchor="middle" x="574.939" y="-265.133" font-family="Times,serif" font-size="14.00">y3 = 0</text>
</g>
<!-- n13 -->
<g id="node13" class="node"><title>n13</title>
<ellipse fill="none" stroke="black" cx="688.439" cy="-195.25" rx="82.0488" ry="48.1667"/>
<text text-anchor="middle" x="688.439" y="-214.05" font-family="Times,serif" font-size="14.00">x={8, 0, 6, 11, 0}</text>
<text text-anchor="middle" x="688.439" y="-199.05" font-family="Times,serif" font-size="14.00">y{1, 0, 1, 1, 0}</text>
<text text-anchor="middle" x="688.439" y="-184.05" font-family="Times,serif" font-size="14.00">s={5, 0, 0, 8, 0}</text>
<text text-anchor="middle" x="688.439" y="-169.05" font-family="Times,serif" font-size="14.00">z=191</text>
</g>
<!-- n8&#45;&gt;n13 -->
<g id="edge12" class="edge"><title>n8&#45;&gt;n13</title>
<path fill="none" stroke="black" d="M630.327,-296.677C638.87,-281.913 648.461,-265.338 657.351,-249.974"/>
<polygon fill="black" stroke="black" points="660.512,-251.5 662.491,-241.091 654.453,-247.994 660.512,-251.5"/>
<text text-anchor="middle" x="666.939" y="-265.133" font-family="Times,serif" font-size="14.00">y3 = 1</text>
</g>
<!-- n14 -->
<g id="node14" class="node"><title>n14</title>
<ellipse fill="none" stroke="black" cx="179.439" cy="-48.0833" rx="82.0488" ry="48.1667"/>
<text text-anchor="middle" x="179.439" y="-66.8833" font-family="Times,serif" font-size="14.00">x={17, 0, 0, 0, 8}</text>
<text text-anchor="middle" x="179.439" y="-51.8833" font-family="Times,serif" font-size="14.00">y{1, 0, 0, 0, 1}</text>
<text text-anchor="middle" x="179.439" y="-36.8833" font-family="Times,serif" font-size="14.00">s={14, 9, 3, 0, 0}</text>
<text text-anchor="middle" x="179.439" y="-21.8833" font-family="Times,serif" font-size="14.00">z=195</text>
</g>
<!-- n11&#45;&gt;n14 -->
<g id="edge13" class="edge"><title>n11&#45;&gt;n14</title>
<path fill="none" stroke="black" d="M241.009,-149.511C231.958,-134.747 221.796,-118.172 212.377,-102.808"/>
<polygon fill="black" stroke="black" points="215.141,-100.621 206.93,-93.9247 209.173,-104.279 215.141,-100.621"/>
<text text-anchor="middle" x="245.939" y="-117.967" font-family="Times,serif" font-size="14.00">y3 = 0</text>
</g>
<!-- n15 -->
<g id="node15" class="node"><title>n15</title>
<ellipse fill="none" stroke="black" cx="356.439" cy="-48.0833" rx="77.1494" ry="48.1667"/>
<text text-anchor="middle" x="356.439" y="-66.8833" font-family="Times,serif" font-size="14.00">x={8, 0, 9, 0, 8}</text>
<text text-anchor="middle" x="356.439" y="-51.8833" font-family="Times,serif" font-size="14.00">y{1, 0, 1, 0, 1}</text>
<text text-anchor="middle" x="356.439" y="-36.8833" font-family="Times,serif" font-size="14.00">s={5, 0, 3, 0, 0}</text>
<text text-anchor="middle" x="356.439" y="-21.8833" font-family="Times,serif" font-size="14.00">z=192</text>
</g>
<!-- n11&#45;&gt;n15 -->
<g id="edge14" class="edge"><title>n11&#45;&gt;n15</title>
<path fill="none" stroke="black" d="M295.56,-149.511C304.594,-134.608 314.747,-117.859 324.134,-102.373"/>
<polygon fill="black" stroke="black" points="327.368,-103.791 329.558,-93.4252 321.382,-100.162 327.368,-103.791"/>
<text text-anchor="middle" x="333.939" y="-117.967" font-family="Times,serif" font-size="14.00">y3 = 1</text>
</g>
</g>
</svg>
